<?xml version="1.0" encoding="UTF-8" standalone="no"?>
<!DOCTYPE svg PUBLIC "-//W3C//DTD SVG 1.1//EN"
 "http://www.w3.org/Graphics/SVG/1.1/DTD/svg11.dtd">
<!-- Generated by graphviz version 2.28.0 (20110507.0327)
 -->
<!-- Title: test Pages: 1 -->
<svg width="695pt" height="678pt"
 viewBox="0.00 0.00 694.84 677.61" xmlns="http://www.w3.org/2000/svg" xmlns:xlink="http://www.w3.org/1999/xlink">
<g id="graph1" class="graph" transform="scale(1 1) rotate(0) translate(4 673.61)">
<title>test</title>
<polygon fill="white" stroke="white" points="-4,5 -4,-673.61 691.835,-673.61 691.835,5 -4,5"/>
<!-- S1 -->
<g id="node1" class="node"><title>S1</title>
<ellipse fill="none" stroke="red" cx="344.342" cy="-334.805" rx="27" ry="18"/>
<text text-anchor="middle" x="344.342" y="-331.105" font-family="Times New Roman,serif" font-size="14.00">S1</text>
</g>
<!-- R10 -->
<g id="node2" class="node"><title>R10</title>
<ellipse fill="none" stroke="black" cx="659.538" cy="-371.646" rx="27" ry="18"/>
<text text-anchor="middle" x="659.538" y="-367.946" font-family="Times New Roman,serif" font-size="14.00">R1</text>
</g>
<!-- S1&#45;&gt;R10 -->
<g id="edge20" class="edge"><title>S1&#45;&gt;R10</title>
<path fill="none" stroke="black" d="M370.944,-337.914C427.18,-344.487 558.237,-359.806 622.573,-367.325"/>
<polygon fill="black" stroke="black" points="622.334,-370.821 632.673,-368.506 623.147,-363.869 622.334,-370.821"/>
<text text-anchor="middle" x="495.758" y="-358.92" font-family="Times New Roman,serif" font-size="14.00">reward&#45;link</text>
</g>
<!-- O23 -->
<g id="node3" class="node"><title>O23</title>
<ellipse fill="none" stroke="black" cx="642.546" cy="-443.342" rx="27" ry="18"/>
<text text-anchor="middle" x="642.546" y="-439.642" font-family="Times New Roman,serif" font-size="14.00">O23</text>
</g>
<!-- S1&#45;&gt;O23 -->
<g id="edge16" class="edge"><title>S1&#45;&gt;O23</title>
<path fill="none" stroke="black" d="M365.465,-346.509C415.905,-368.813 543.74,-415.601 606.579,-435.046"/>
<polygon fill="black" stroke="black" points="605.86,-438.485 616.445,-438.03 607.887,-431.785 605.86,-438.485"/>
<text text-anchor="middle" x="490.022" y="-374.077" font-family="Times New Roman,serif" font-size="14.00">operator</text>
</g>
<!-- S1&#45;&gt;O23 -->
<g id="edge18" class="edge"><title>S1&#45;&gt;O23</title>
<path fill="none" stroke="black" d="M370.343,-340.087C425.396,-356.286 553.407,-402.721 612.135,-427.623"/>
<polygon fill="black" stroke="black" points="611.037,-430.962 621.604,-431.719 613.816,-424.537 611.037,-430.962"/>
<text text-anchor="middle" x="495.239" y="-367.155" font-family="Times New Roman,serif" font-size="14.00">operator</text>
</g>
<!-- O22 -->
<g id="node4" class="node"><title>O22</title>
<ellipse fill="none" stroke="black" cx="609.477" cy="-509.187" rx="27" ry="18"/>
<text text-anchor="middle" x="609.477" y="-505.487" font-family="Times New Roman,serif" font-size="14.00">O22</text>
</g>
<!-- S1&#45;&gt;O22 -->
<g id="edge14" class="edge"><title>S1&#45;&gt;O22</title>
<path fill="none" stroke="black" d="M363.838,-347.628C410.284,-378.176 527.608,-455.341 581.555,-490.823"/>
<polygon fill="black" stroke="black" points="579.674,-493.775 589.952,-496.346 583.521,-487.926 579.674,-493.775"/>
<text text-anchor="middle" x="481.696" y="-401.525" font-family="Times New Roman,serif" font-size="14.00">operator</text>
</g>
<!-- node1 -->
<g id="node5" class="node"><title>node1</title>
<ellipse fill="none" stroke="black" cx="562.115" cy="-565.631" rx="27" ry="18"/>
<text text-anchor="middle" x="562.115" y="-561.931" font-family="Times New Roman,serif" font-size="14.00">4</text>
</g>
<!-- S1&#45;&gt;node1 -->
<g id="edge4" class="edge"><title>S1&#45;&gt;node1</title>
<path fill="none" stroke="black" d="M358.969,-350.308C396.471,-390.059 496.206,-495.772 540.453,-542.67"/>
<polygon fill="black" stroke="black" points="538.143,-545.323 547.552,-550.195 543.235,-540.519 538.143,-545.323"/>
<text text-anchor="middle" x="437.711" y="-453.789" font-family="Times New Roman,serif" font-size="14.00">wcnt</text>
</g>
<!-- A1 -->
<g id="node6" class="node"><title>A1</title>
<ellipse fill="none" stroke="black" cx="503.013" cy="-609.631" rx="27" ry="18"/>
<text text-anchor="middle" x="503.013" y="-605.931" font-family="Times New Roman,serif" font-size="14.00">A1</text>
</g>
<!-- S1&#45;&gt;A1 -->
<g id="edge6" class="edge"><title>S1&#45;&gt;A1</title>
<path fill="none" stroke="black" d="M354.267,-351.997C381.268,-398.764 456.164,-528.487 488.184,-583.948"/>
<polygon fill="black" stroke="black" points="485.262,-585.887 493.293,-592.797 491.325,-582.386 485.262,-585.887"/>
<text text-anchor="middle" x="437.226" y="-455.272" font-family="Times New Roman,serif" font-size="14.00">arsets</text>
</g>
<!-- I1 -->
<g id="node7" class="node"><title>I1</title>
<ellipse fill="none" stroke="black" cx="435.356" cy="-638.815" rx="27" ry="18"/>
<text text-anchor="middle" x="435.356" y="-635.115" font-family="Times New Roman,serif" font-size="14.00">I1</text>
</g>
<!-- S1&#45;&gt;I1 -->
<g id="edge10" class="edge"><title>S1&#45;&gt;I1</title>
<path fill="none" stroke="black" d="M349.629,-352.464C364.835,-403.257 408.77,-550.01 427.135,-611.354"/>
<polygon fill="black" stroke="black" points="423.834,-612.531 430.055,-621.107 430.54,-610.524 423.834,-612.531"/>
<text text-anchor="middle" x="396.382" y="-476.209" font-family="Times New Roman,serif" font-size="14.00">io</text>
</g>
<!-- W10 -->
<g id="node8" class="node"><title>W10</title>
<ellipse fill="none" stroke="black" cx="362.794" cy="-651.61" rx="28.3955" ry="18"/>
<text text-anchor="middle" x="362.794" y="-647.91" font-family="Times New Roman,serif" font-size="14.00">W10</text>
</g>
<!-- S1&#45;&gt;W10 -->
<g id="edge40" class="edge"><title>S1&#45;&gt;W10</title>
<path fill="none" stroke="black" d="M345.414,-353.207C348.504,-406.263 357.446,-559.789 361.153,-623.443"/>
<polygon fill="black" stroke="black" points="357.666,-623.772 361.742,-633.552 364.654,-623.365 357.666,-623.772"/>
<text text-anchor="middle" x="335.283" y="-485.625" font-family="Times New Roman,serif" font-size="14.00">sentence</text>
</g>
<!-- W8 -->
<g id="node9" class="node"><title>W8</title>
<ellipse fill="none" stroke="black" cx="289.236" cy="-647.326" rx="27" ry="18"/>
<text text-anchor="middle" x="289.236" y="-643.626" font-family="Times New Roman,serif" font-size="14.00">W8</text>
</g>
<!-- S1&#45;&gt;W8 -->
<g id="edge48" class="edge"><title>S1&#45;&gt;W8</title>
<path fill="none" stroke="black" d="M341.141,-352.958C331.934,-405.173 305.333,-556.035 294.214,-619.095"/>
<polygon fill="black" stroke="black" points="290.735,-618.666 292.446,-629.122 297.629,-619.882 290.735,-618.666"/>
<text text-anchor="middle" x="335.677" y="-485.327" font-family="Times New Roman,serif" font-size="14.00">sentence</text>
</g>
<!-- W2 -->
<g id="node10" class="node"><title>W2</title>
<ellipse fill="none" stroke="black" cx="218.649" cy="-626.193" rx="27" ry="18"/>
<text text-anchor="middle" x="218.649" y="-622.493" font-family="Times New Roman,serif" font-size="14.00">W2</text>
</g>
<!-- S1&#45;&gt;W2 -->
<g id="edge42" class="edge"><title>S1&#45;&gt;W2</title>
<path fill="none" stroke="black" d="M336.856,-352.16C315.772,-401.036 255.784,-540.105 230.315,-599.15"/>
<polygon fill="black" stroke="black" points="227.002,-597.992 226.255,-608.561 233.43,-600.765 227.002,-597.992"/>
<text text-anchor="middle" x="265.585" y="-464.955" font-family="Times New Roman,serif" font-size="14.00">sentence</text>
</g>
<!-- W4 -->
<g id="node11" class="node"><title>W4</title>
<ellipse fill="none" stroke="black" cx="154.838" cy="-589.352" rx="27" ry="18"/>
<text text-anchor="middle" x="154.838" y="-585.652" font-family="Times New Roman,serif" font-size="14.00">W4</text>
</g>
<!-- S1&#45;&gt;W4 -->
<g id="edge44" class="edge"><title>S1&#45;&gt;W4</title>
<path fill="none" stroke="black" d="M332.199,-351.115C299.843,-394.577 211.404,-513.371 173.019,-564.932"/>
<polygon fill="black" stroke="black" points="170.044,-563.066 166.88,-573.178 175.659,-567.246 170.044,-563.066"/>
<text text-anchor="middle" x="237.609" y="-443.323" font-family="Times New Roman,serif" font-size="14.00">sentence</text>
</g>
<!-- W6 -->
<g id="node12" class="node"><title>W6</title>
<ellipse fill="none" stroke="black" cx="101.244" cy="-538.788" rx="27" ry="18"/>
<text text-anchor="middle" x="101.244" y="-535.088" font-family="Times New Roman,serif" font-size="14.00">W6</text>
</g>
<!-- S1&#45;&gt;W6 -->
<g id="edge46" class="edge"><title>S1&#45;&gt;W6</title>
<path fill="none" stroke="black" d="M327.248,-349.149C284.967,-384.627 175.347,-476.609 125.981,-518.031"/>
<polygon fill="black" stroke="black" points="123.73,-515.351 118.319,-524.46 128.229,-520.714 123.73,-515.351"/>
<text text-anchor="middle" x="215.615" y="-416.89" font-family="Times New Roman,serif" font-size="14.00">sentence</text>
</g>
<!-- S5 -->
<g id="node13" class="node"><title>S5</title>
<ellipse fill="none" stroke="black" cx="60.7548" cy="-477.228" rx="27" ry="18"/>
<text text-anchor="middle" x="60.7548" y="-473.528" font-family="Times New Roman,serif" font-size="14.00">S5</text>
</g>
<!-- S1&#45;&gt;S5 -->
<g id="edge34" class="edge"><title>S1&#45;&gt;S5</title>
<path fill="none" stroke="black" d="M322.56,-345.744C272.557,-370.857 149.412,-432.702 91.6294,-461.722"/>
<polygon fill="black" stroke="black" points="89.9763,-458.635 82.6107,-466.251 93.1179,-464.891 89.9763,-458.635"/>
<text text-anchor="middle" x="214.095" y="-414.033" font-family="Times New Roman,serif" font-size="14.00">strategies</text>
</g>
<!-- X2 -->
<g id="node14" class="node"><title>X2</title>
<ellipse fill="none" stroke="black" cx="35.554" cy="-407.989" rx="27" ry="18"/>
<text text-anchor="middle" x="35.554" y="-404.289" font-family="Times New Roman,serif" font-size="14.00">X2</text>
</g>
<!-- S1&#45;&gt;X2 -->
<g id="edge52" class="edge"><title>S1&#45;&gt;X2</title>
<path fill="none" stroke="black" d="M318.81,-340.856C263.786,-353.897 133.923,-384.675 70.9811,-399.593"/>
<polygon fill="black" stroke="black" points="70.0392,-396.219 61.1159,-401.931 71.6536,-403.03 70.0392,-396.219"/>
<text text-anchor="middle" x="192.895" y="-356.524" font-family="Times New Roman,serif" font-size="14.00">hop</text>
</g>
<!-- X1 -->
<g id="node15" class="node"><title>X1</title>
<ellipse fill="none" stroke="black" cx="27" cy="-334.805" rx="27" ry="18"/>
<text text-anchor="middle" x="27" y="-331.105" font-family="Times New Roman,serif" font-size="14.00">X1</text>
</g>
<!-- S1&#45;&gt;X1 -->
<g id="edge50" class="edge"><title>S1&#45;&gt;X1</title>
<path fill="none" stroke="black" d="M317.285,-334.805C260.634,-334.805 129.435,-334.805 64.6216,-334.805"/>
<polygon fill="black" stroke="black" points="64.4387,-331.305 54.4386,-334.805 64.4386,-338.305 64.4387,-331.305"/>
<text text-anchor="middle" x="190.953" y="-339.105" font-family="Times New Roman,serif" font-size="14.00">hop</text>
</g>
<!-- L12 -->
<g id="node16" class="node"><title>L12</title>
<ellipse fill="none" stroke="black" cx="35.554" cy="-261.621" rx="27" ry="18"/>
<text text-anchor="middle" x="35.554" y="-257.921" font-family="Times New Roman,serif" font-size="14.00">L12</text>
</g>
<!-- S1&#45;&gt;L12 -->
<g id="edge12" class="edge"><title>S1&#45;&gt;L12</title>
<path fill="none" stroke="black" d="M318.81,-328.754C263.786,-315.713 133.923,-284.935 70.9811,-270.017"/>
<polygon fill="black" stroke="black" points="71.6536,-266.58 61.1159,-267.679 70.0392,-273.391 71.6536,-266.58"/>
<text text-anchor="middle" x="196.895" y="-283.685" font-family="Times New Roman,serif" font-size="14.00">language</text>
</g>
<!-- node2 -->
<g id="node17" class="node"><title>node2</title>
<ellipse fill="none" stroke="black" cx="60.7548" cy="-192.382" rx="27" ry="18"/>
<text text-anchor="middle" x="60.7548" y="-188.682" font-family="Times New Roman,serif" font-size="14.00">3</text>
</g>
<!-- S1&#45;&gt;node2 -->
<g id="edge2" class="edge"><title>S1&#45;&gt;node2</title>
<path fill="none" stroke="black" d="M322.56,-323.866C272.557,-298.753 149.412,-236.907 91.6294,-207.888"/>
<polygon fill="black" stroke="black" points="93.1179,-204.719 82.6107,-203.359 89.9763,-210.974 93.1179,-204.719"/>
<text text-anchor="middle" x="200.095" y="-276.177" font-family="Times New Roman,serif" font-size="14.00">lastacc</text>
</g>
<!-- S45 -->
<g id="node18" class="node"><title>S45</title>
<ellipse fill="none" stroke="black" cx="101.244" cy="-130.822" rx="27" ry="18"/>
<text text-anchor="middle" x="101.244" y="-127.122" font-family="Times New Roman,serif" font-size="14.00">S45</text>
</g>
<!-- S1&#45;&gt;S45 -->
<g id="edge30" class="edge"><title>S1&#45;&gt;S45</title>
<path fill="none" stroke="black" d="M327.248,-320.461C284.967,-284.983 175.347,-193.001 125.981,-151.579"/>
<polygon fill="black" stroke="black" points="128.229,-148.896 118.319,-145.149 123.73,-154.258 128.229,-148.896"/>
<text text-anchor="middle" x="215.615" y="-245.32" font-family="Times New Roman,serif" font-size="14.00">synobjs</text>
</g>
<!-- S49 -->
<g id="node19" class="node"><title>S49</title>
<ellipse fill="none" stroke="black" cx="154.838" cy="-80.2577" rx="27" ry="18"/>
<text text-anchor="middle" x="154.838" y="-76.5577" font-family="Times New Roman,serif" font-size="14.00">S49</text>
</g>
<!-- S1&#45;&gt;S49 -->
<g id="edge32" class="edge"><title>S1&#45;&gt;S49</title>
<path fill="none" stroke="black" d="M332.199,-318.495C299.843,-275.033 211.404,-156.239 173.019,-104.678"/>
<polygon fill="black" stroke="black" points="175.659,-102.363 166.88,-96.4321 170.044,-106.543 175.659,-102.363"/>
<text text-anchor="middle" x="267.609" y="-196.886" font-family="Times New Roman,serif" font-size="14.00">synobjs</text>
</g>
<!-- S56 -->
<g id="node20" class="node"><title>S56</title>
<ellipse fill="none" stroke="black" cx="218.649" cy="-43.4166" rx="27" ry="18"/>
<text text-anchor="middle" x="218.649" y="-39.7166" font-family="Times New Roman,serif" font-size="14.00">S56</text>
</g>
<!-- S1&#45;&gt;S56 -->
<g id="edge38" class="edge"><title>S1&#45;&gt;S56</title>
<path fill="none" stroke="black" d="M336.856,-317.45C315.772,-268.574 255.784,-129.504 230.315,-70.46"/>
<polygon fill="black" stroke="black" points="233.43,-68.8449 226.255,-61.0491 227.002,-71.6175 233.43,-68.8449"/>
<text text-anchor="middle" x="265.585" y="-197.255" font-family="Times New Roman,serif" font-size="14.00">synobjs</text>
</g>
<!-- S41 -->
<g id="node21" class="node"><title>S41</title>
<ellipse fill="none" stroke="black" cx="289.236" cy="-22.2842" rx="27" ry="18"/>
<text text-anchor="middle" x="289.236" y="-18.5842" font-family="Times New Roman,serif" font-size="14.00">S41</text>
</g>
<!-- S1&#45;&gt;S41 -->
<g id="edge28" class="edge"><title>S1&#45;&gt;S41</title>
<path fill="none" stroke="black" d="M341.141,-316.652C331.934,-264.437 305.333,-113.575 294.214,-50.5144"/>
<polygon fill="black" stroke="black" points="297.629,-49.7279 292.446,-40.4876 290.735,-50.9435 297.629,-49.7279"/>
<text text-anchor="middle" x="299.677" y="-182.883" font-family="Times New Roman,serif" font-size="14.00">synobjs</text>
</g>
<!-- S2 -->
<g id="node22" class="node"><title>S2</title>
<ellipse fill="none" stroke="black" cx="362.794" cy="-18" rx="27" ry="18"/>
<text text-anchor="middle" x="362.794" y="-14.3" font-family="Times New Roman,serif" font-size="14.00">S2</text>
</g>
<!-- S1&#45;&gt;S2 -->
<g id="edge26" class="edge"><title>S1&#45;&gt;S2</title>
<path fill="none" stroke="black" d="M345.414,-316.403C348.504,-263.347 357.446,-109.82 361.153,-46.1663"/>
<polygon fill="black" stroke="black" points="364.654,-46.2448 361.742,-36.0581 357.666,-45.8377 364.654,-46.2448"/>
<text text-anchor="middle" x="371.283" y="-178.585" font-family="Times New Roman,serif" font-size="14.00">smem</text>
</g>
<!-- S53 -->
<g id="node23" class="node"><title>S53</title>
<ellipse fill="none" stroke="black" cx="435.356" cy="-30.7948" rx="27" ry="18"/>
<text text-anchor="middle" x="435.356" y="-27.0948" font-family="Times New Roman,serif" font-size="14.00">S53</text>
</g>
<!-- S1&#45;&gt;S53 -->
<g id="edge36" class="edge"><title>S1&#45;&gt;S53</title>
<path fill="none" stroke="black" d="M349.629,-317.146C364.835,-266.353 408.77,-119.6 427.135,-58.2562"/>
<polygon fill="black" stroke="black" points="430.54,-59.0862 430.055,-48.5025 423.834,-57.0785 430.54,-59.0862"/>
<text text-anchor="middle" x="406.382" y="-189.001" font-family="Times New Roman,serif" font-size="14.00">semobjs</text>
</g>
<!-- S11 -->
<g id="node24" class="node"><title>S11</title>
<ellipse fill="none" stroke="black" cx="503.013" cy="-59.9788" rx="27" ry="18"/>
<text text-anchor="middle" x="503.013" y="-56.2788" font-family="Times New Roman,serif" font-size="14.00">S11</text>
</g>
<!-- S1&#45;&gt;S11 -->
<g id="edge24" class="edge"><title>S1&#45;&gt;S11</title>
<path fill="none" stroke="black" d="M354.267,-317.613C381.268,-270.846 456.164,-141.122 488.184,-85.6623"/>
<polygon fill="black" stroke="black" points="491.325,-87.2233 493.293,-76.813 485.262,-83.7233 491.325,-87.2233"/>
<text text-anchor="middle" x="438.226" y="-206.938" font-family="Times New Roman,serif" font-size="14.00">semobjs</text>
</g>
<!-- nil3 -->
<g id="node25" class="node"><title>nil3</title>
<ellipse fill="none" stroke="black" cx="562.115" cy="-103.979" rx="27" ry="18"/>
<text text-anchor="middle" x="562.115" y="-100.279" font-family="Times New Roman,serif" font-size="14.00">nil</text>
</g>
<!-- S1&#45;&gt;nil3 -->
<g id="edge54" class="edge"><title>S1&#45;&gt;nil3</title>
<path fill="none" stroke="black" d="M358.969,-319.301C396.471,-279.551 496.206,-173.838 540.453,-126.94"/>
<polygon fill="black" stroke="black" points="543.235,-129.091 547.552,-119.415 538.143,-124.287 543.235,-129.091"/>
<text text-anchor="middle" x="436.711" y="-207.42" font-family="Times New Roman,serif" font-size="14.00">superstate</text>
</g>
<!-- E1 -->
<g id="node26" class="node"><title>E1</title>
<ellipse fill="none" stroke="black" cx="609.477" cy="-160.423" rx="27" ry="18"/>
<text text-anchor="middle" x="609.477" y="-156.723" font-family="Times New Roman,serif" font-size="14.00">E1</text>
</g>
<!-- S1&#45;&gt;E1 -->
<g id="edge8" class="edge"><title>S1&#45;&gt;E1</title>
<path fill="none" stroke="black" d="M363.838,-321.982C410.284,-291.434 527.608,-214.269 581.555,-178.787"/>
<polygon fill="black" stroke="black" points="583.521,-181.684 589.952,-173.264 579.674,-175.835 583.521,-181.684"/>
<text text-anchor="middle" x="463.696" y="-232.685" font-family="Times New Roman,serif" font-size="14.00">epmem</text>
</g>
<!-- R7 -->
<g id="node27" class="node"><title>R7</title>
<ellipse fill="none" stroke="black" cx="642.546" cy="-226.268" rx="27" ry="18"/>
<text text-anchor="middle" x="642.546" y="-222.568" font-family="Times New Roman,serif" font-size="14.00">R7</text>
</g>
<!-- S1&#45;&gt;R7 -->
<g id="edge22" class="edge"><title>S1&#45;&gt;R7</title>
<path fill="none" stroke="black" d="M368.241,-326.106C421.133,-306.855 548.206,-260.604 609.017,-238.471"/>
<polygon fill="black" stroke="black" points="610.333,-241.717 618.533,-235.008 607.939,-235.139 610.333,-241.717"/>
<text text-anchor="middle" x="484.629" y="-265.589" font-family="Times New Roman,serif" font-size="14.00">runtimeinfo</text>
</g>
<!-- state4 -->
<g id="node28" class="node"><title>state4</title>
<ellipse fill="none" stroke="black" cx="659.538" cy="-297.964" rx="26.949" ry="18"/>
<text text-anchor="middle" x="659.538" y="-294.264" font-family="Times New Roman,serif" font-size="14.00">state</text>
</g>
<!-- S1&#45;&gt;state4 -->
<g id="edge56" class="edge"><title>S1&#45;&gt;state4</title>
<path fill="none" stroke="black" d="M370.944,-331.696C427.039,-325.139 557.582,-309.881 622.089,-302.341"/>
<polygon fill="black" stroke="black" points="622.698,-305.794 632.224,-301.156 621.886,-298.841 622.698,-305.794"/>
<text text-anchor="middle" x="497.516" y="-322.318" font-family="Times New Roman,serif" font-size="14.00">type</text>
</g>
</g>
</svg>
